<svg xmlns="http://www.w3.org/2000/svg" viewBox="0 0 1013.79 135.98"><defs><style>.cls-1{fill:#fff;}.cls-2{fill:#ff6e4a;fill-rule:evenodd;}.cls-3{fill:#d1d1d1;}</style></defs><g id="Layer_2" data-name="Layer 2"><g id="Layer_1-2" data-name="Layer 1"><path class="cls-1" d="M484.73,80c2.32,1.74,4.7,3.62,7.11,5.65a11.75,11.75,0,0,1,2.37,2.46,5.5,5.5,0,0,1,1,3.26,6.4,6.4,0,0,1-1.75,4.53,5.6,5.6,0,0,1-4.24,1.86A6.47,6.47,0,0,1,485,95.94q-5.1-4-10.47-7.71a94.09,94.09,0,0,0-11.16-6.65,64.36,64.36,0,0,0-12-4.65,48,48,0,0,0-13-1.73H425.05a4.45,4.45,0,0,0-2.74,1.6,5,5,0,0,0-1.12,3.33v11.3A6.24,6.24,0,0,1,419.37,96a5.66,5.66,0,0,1-4.17,1.87A5.56,5.56,0,0,1,411,96a6.38,6.38,0,0,1-1.74-4.52V78.66a17.18,17.18,0,0,1,4.36-11.5,14.72,14.72,0,0,1,4.74-3.46,14.16,14.16,0,0,1,6-1.27h54.58a4.58,4.58,0,0,0,3.31-1.4,4.69,4.69,0,0,0,1.44-3.52,4.78,4.78,0,0,0-1.44-3.46,4.49,4.49,0,0,0-3.31-1.46H415.19A5.56,5.56,0,0,1,411,50.72a6.74,6.74,0,0,1,0-9,5.58,5.58,0,0,1,4.24-1.86h63.18a15.4,15.4,0,0,1,6.54,1.4A17.39,17.39,0,0,1,490.28,45a17.64,17.64,0,0,1,3.61,5.58,18.8,18.8,0,0,1,0,13.84,17.47,17.47,0,0,1-9,9.38,15.54,15.54,0,0,1-6.54,1.39h-.5C480.12,76.7,482.4,78.32,484.73,80Z"/><path class="cls-1" d="M529.23,73.81A16.78,16.78,0,0,1,524,70a18.36,18.36,0,0,1-3.52-5.59A18.52,18.52,0,0,1,524,45a16.94,16.94,0,0,1,5.2-3.79,14.71,14.71,0,0,1,6.42-1.4h60.76a5.53,5.53,0,0,1,4.2,1.86,6.78,6.78,0,0,1,0,9,5.53,5.53,0,0,1-4.2,1.86h-61a4.59,4.59,0,0,0-3.29,1.4,4.73,4.73,0,0,0-1.42,3.52A4.78,4.78,0,0,0,532.12,61a4.48,4.48,0,0,0,3.29,1.47h51.23a15.35,15.35,0,0,1,6.49,1.39,16.83,16.83,0,0,1,5.25,3.8,17.88,17.88,0,0,1,3.52,5.65,18.6,18.6,0,0,1,1.31,7,18.31,18.31,0,0,1-4.83,12.51,15.85,15.85,0,0,1-5.25,3.72,16.1,16.1,0,0,1-6.49,1.33H526A5.5,5.5,0,0,1,521.8,96a6.77,6.77,0,0,1,0-9,5.53,5.53,0,0,1,4.2-1.86h61.13a4.34,4.34,0,0,0,3.21-1.4,4.69,4.69,0,0,0,1.36-3.4,5.08,5.08,0,0,0-1.36-3.59,4.22,4.22,0,0,0-3.21-1.46H535.65A14.73,14.73,0,0,1,529.23,73.81Z"/><path class="cls-1" d="M266.37,97.4a6.59,6.59,0,0,1-6.68-6.51V55.79L241,74.68a16.21,16.21,0,0,1-23,0L199.36,55.79v35.1a6.68,6.68,0,0,1-13.36,0V52.12a11.5,11.5,0,0,1,7.41-10.7,12,12,0,0,1,13,2.7l21.27,21.53a2.63,2.63,0,0,0,3.76,0l21.28-21.53a12,12,0,0,1,12.95-2.7,11.49,11.49,0,0,1,7.42,10.7V90.89A6.6,6.6,0,0,1,266.37,97.4Z"/><path class="cls-1" d="M378.05,97.4a6.68,6.68,0,0,1-5.5-2.81l-28-39.65a4.91,4.91,0,0,0-6.76,0L309.87,94.58a6.79,6.79,0,0,1-9.29,1.67,6.4,6.4,0,0,1-1.71-9l28.48-40.37.27-.3a18.49,18.49,0,0,1,27.19,0l.28.3.23.33,28.25,40a6.41,6.41,0,0,1-1.72,9A6.75,6.75,0,0,1,378.05,97.4Z"/><path class="cls-2" d="M63.18,135.81A68,68,0,1,0,8,99.93q.48.91,1,1.8c18.8,5.85,31.8-5.79,38.18-13.81l-.88-.56.39-2.27c-6.59-3.22-15.72-2.64-15.72-2.64a46.34,46.34,0,0,1,20.8-17.4A63.51,63.51,0,0,1,93.35,28.39,63.22,63.22,0,0,1,77.66,81.51a46.2,46.2,0,0,1-7,26.12s-3.34-8.46-9-13.06l-1.9,1.32-.91-.57c-4.59,9.18-9.67,25.92,3.76,40.45l.5,0Z"/><path class="cls-3" d="M672.1,97.82H639.91V40H672.1v5.93H646.63V64.64h24v5.85h-24v21.4H672.1Zm76.66,0H741L709.48,49.25h-.32c.08,1.29.18,2.77.28,4.43s.19,3.39.24,5.26.12,3.73.12,5.66V97.82h-6.25V40h7.71l31.4,48.41h.28c-.05-.93-.12-2.23-.2-3.92s-.15-3.55-.23-5.5-.08-3.81-.08-5.5V40h6.33Zm59.13-30.3H828.1v28a55.86,55.86,0,0,1-9.38,2.3,69.59,69.59,0,0,1-10.72.75q-9,0-15.22-3.6a23.23,23.23,0,0,1-9.38-10.24,36.49,36.49,0,0,1-3.2-15.86,33.14,33.14,0,0,1,3.52-15.67A25.05,25.05,0,0,1,794,42.88a32.91,32.91,0,0,1,16.14-3.72,44.68,44.68,0,0,1,9.14.91,38.72,38.72,0,0,1,8.06,2.5l-2.57,5.85a47.59,47.59,0,0,0-7.07-2.37,31.72,31.72,0,0,0-7.95-1A23.89,23.89,0,0,0,797.56,48a19.51,19.51,0,0,0-7.71,8.27,28.14,28.14,0,0,0-2.65,12.66,31.57,31.57,0,0,0,2.33,12.61,17.81,17.81,0,0,0,7.28,8.31q5,3,12.74,3a44.54,44.54,0,0,0,6.72-.44q2.81-.48,5.1-1.11V73.53H807.89Zm52.84,30.3V40h6.72V97.82Zm86.46,0h-7.76L907.91,49.25h-.31c.07,1.29.17,2.77.27,4.43s.19,3.39.24,5.26.12,3.73.12,5.66V97.82H902V40h7.71L941.1,88.41h.27c0-.93-.12-2.23-.2-3.92s-.15-3.55-.23-5.5-.08-3.81-.08-5.5V40h6.33Zm66.6,0H981.6V40h32.19v5.93H988.32V64.64h24v5.85h-24v21.4h25.47Z"/></g></g></svg>