<?xml version="1.0" standalone="no"?>
<!DOCTYPE svg PUBLIC "-//W3C//DTD SVG 1.0//EN" "http://www.w3.org/TR/2001/REC-SVG-20010904/DTD/svg10.dtd">
<svg xmlns="http://www.w3.org/2000/svg" xmlns:xlink="http://www.w3.org/1999/xlink" id="body_1" width="104" height="104">

<g transform="matrix(0.8454186 0 0 0.8454186 0.00042247708 -0)">
	<g>
        <path d="M35.063 34.188C 35.662 34.188 36.269 34.059 36.845 33.786C 36.905003 33.758 40.632 31.997 44.190002 30.362999C 41.011 29.48 38.334003 27.404 36.660004 24.643C 34.811005 25.507 33.424004 26.161999 33.276005 26.232C 31.189005 27.218 30.297005 29.709 31.282005 31.795C 31.995 33.303 33.498 34.188 35.063 34.188z" stroke="none" fill="#000000" fill-rule="nonzero" />
		<g>
            <path d="M81.314 26.513C 85.345 28.363 89.622 30.383 89.689 30.415C 90.336006 30.720001 91.018005 30.865002 91.69 30.865002C 93.446 30.865002 95.128006 29.873001 95.927 28.180002C 97.032005 25.840002 96.032005 23.046001 93.694 21.941002C 93.52 21.859001 91.824 21.057001 89.599 20.020002C 87.772 23.116 84.826 25.47 81.314 26.513z" stroke="none" fill="#000000" fill-rule="nonzero" />
            <path d="M90.473 12.986C 90.473 16.571985 89.20516 19.632814 86.66949 22.168488C 84.13381 24.704163 81.07298 25.972 77.487 25.972C 73.90102 25.972 70.84019 24.704163 68.30451 22.168488C 65.76884 19.632814 64.501 16.571985 64.501 12.986C 64.501 9.400015 65.76884 6.3391857 68.30451 3.8035116C 70.84019 1.2678373 73.90102 0 77.487 0C 81.07298 0 84.13381 1.2678373 86.66949 3.8035116C 89.20516 6.3391857 90.473 9.400015 90.473 12.986C 90.473 13.137115 90.47037 13.288183 90.46509 13.439205" stroke="none" fill="#000000" fill-rule="nonzero" />
            <path d="M59.155 12.986C 59.155003 16.571985 57.887165 19.632814 55.351486 22.168488C 52.815815 24.704163 49.754986 25.972 46.169 25.972C 42.583015 25.972 39.522186 24.704163 36.98651 22.168488C 34.450836 19.632814 33.183 16.571985 33.183 12.986C 33.183 9.400015 34.450836 6.3391857 36.98651 3.8035116C 39.522186 1.2678373 42.583015 0 46.169 0C 49.754986 0 52.815815 1.2678373 55.351486 3.8035116C 57.887165 6.3391857 59.155003 9.400015 59.155 12.986C 59.155003 13.137115 59.152367 13.288183 59.147087 13.439205" stroke="none" fill="#000000" fill-rule="nonzero" />
            <path d="M48.641 27.26L46.022 29.269001L44.036 27.456001C 39.698997 29.433 34.482 31.897001 34.412 31.931002C 33.653 32.289 32.846 32.471 32.011997 32.471C 31.087997 32.471 30.198997 32.229 29.405998 31.812L29.405998 31.812L29.387 31.832C 24.366999 27.806 20.183998 20.835001 18.717 17.834C 17.5 15.327999 14.483999 14.285 11.978999 15.500999C 9.474999 16.717 8.429999 19.734 9.646999 22.238998C 10.537 24.068998 18.688 40.232 30.987999 44.080997C 31.696 44.302998 32.406998 44.467 33.118 44.599C 33.199 47.698997 33.347 53.679 33.347 55.684C 33.347 60.802 34.401 62.213997 34.401 62.213997L34.401 62.213997L34.406002 68.452995L34.499 68.452995C 34.495 68.533 34.475002 68.60899 34.475002 68.690994L34.475002 68.690994L34.478 116.967995C 34.478 120.258995 37.145 122.925995 40.436 122.925995C 43.726 122.925995 46.394 120.258995 46.394 116.967995L46.394 116.967995L46.39 68.689C 46.39 68.607 46.369 68.531006 46.366 68.451004L46.366 68.451004L47.263 68.451004C 47.259 68.531006 47.239002 68.607 47.239002 68.689L47.239002 68.689L47.236004 116.965004C 47.236004 120.256004 49.903004 122.923004 53.194004 122.923004C 56.484005 122.923004 59.152004 120.256004 59.152004 116.965004L59.152004 116.965004L59.156006 68.689C 59.156006 68.607 59.135006 68.531006 59.133007 68.449005L59.133007 68.449005L59.149006 68.449005L59.149006 62.96C 59.149006 62.760998 59.136005 62.564 59.119007 62.371C 59.74901 60.546997 60.087006 58.546997 60.087006 56.447L60.087006 56.447L60.087006 31.545C 57.944004 31.717001 51.492004 27.034 50.700005 26.674C 50.173 26.824 49.183 27.17 48.641 27.26z" stroke="none" fill="#000000" fill-rule="nonzero" />
            <path d="M111.042 15.949C 108.54 14.7300005 105.523 15.771 104.303 18.269001C 102.878 21.185001 98.9 27.844002 94.082 31.915C 93.294 32.326 92.413 32.565002 91.495 32.565002C 90.664 32.565002 89.853004 32.383003 89.096 32.025C 89.026 31.991001 83.81 29.527002 79.472 27.550001L79.472 27.550001L77.485 29.364L74.867004 26.898C 74.324005 26.807001 73.79201 26.691 73.269005 26.54C 72.187004 27.031 70.898 27.701 69.565 28.488C 69.663 27.914001 69.659004 27.334002 69.544 26.77C 70.137 26.425001 70.719 26.107 71.291 25.806C 68.233 24.409 65.759 21.973 64.303 18.949C 63.497 19.439 62.706 19.939999 61.951 20.449999C 60.849 19.817999 59.786 19.216 58.95 18.742998C 57.543 21.794998 55.097 24.263998 52.066 25.707998C 54.547 26.999998 60.583 30.342999 62.257004 31.524998C 62.624004 31.782997 63.020004 31.959997 63.425003 32.1L63.425003 32.1L63.425003 56.544C 63.425003 58.643997 63.763004 60.643997 64.39101 62.468C 64.37301 62.662 64.36201 62.857998 64.36201 63.057L64.36201 63.057L64.36201 68.547L64.39901 68.547C 64.39701 68.626 64.378006 68.701 64.378006 68.781L64.378006 68.781L64.379005 117.056C 64.379005 120.348 67.047005 123.014 70.337006 123.014C 73.628006 123.014 76.295006 120.347 76.295006 117.055L76.295006 117.055L76.29401 68.779C 76.29401 68.699 76.273 68.626 76.272 68.547L76.272 68.547L77.167 68.547C 77.165 68.626 77.144 68.699 77.144 68.779L77.144 68.779L77.141 117.056C 77.141 120.347 79.808 123.014 83.099 123.015C 86.389 123.015 89.057 120.348 89.057 117.057L89.057 117.057L89.061 68.781C 89.061 68.699 89.03999 68.626 89.037994 68.547L89.037994 68.547L89.106995 68.547L89.11099 62.309C 89.11099 62.309 90.16599 60.896 90.16599 55.778C 90.16599 53.826 90.30699 48.109 90.38899 44.947C 90.937996 44.829998 91.48699 44.695 92.034996 44.524C 104.335 40.672997 112.485 24.512 113.375 22.680998C 114.584 20.179 113.542 17.168 111.042 15.949z" stroke="none" fill="#000000" fill-rule="nonzero" />
		</g>
	</g>
</g>
</svg>