<?xml version="1.0" standalone="no"?>
<!DOCTYPE svg PUBLIC "-//W3C//DTD SVG 1.0//EN" "http://www.w3.org/TR/2001/REC-SVG-20010904/DTD/svg10.dtd">
<svg xmlns="http://www.w3.org/2000/svg" xmlns:xlink="http://www.w3.org/1999/xlink" id="body_1" width="242" height="362">

<g transform="matrix(2.7816093 0 0 2.7816093 -0 0.39082426)">
	<g transform="matrix(0.1 0 -0 -0.1 0 130)">
        <path d="M317 938C 307 930 300 907 298 880L298 880L295 835L210 832C 164 830 120 824 113 818C 103 810 100 755 100 584C 100 373 101 360 119 350C 146 336 734 336 761 350C 779 360 780 374 780 589C 780 788 778 819 764 824C 755 827 710 830 664 830L664 830L580 830L580 880C 580 918 576 932 561 940C 533 955 338 953 317 938zM549 906C 556 898 560 879 558 863C 554 827 525 825 525 860C 525 885 524 885 440 885C 356 885 355 885 355 860C 355 845 349 835 340 835C 323 835 316 862 324 896C 330 919 333 920 434 920C 512 920 541 916 549 906zM498 848C 495 840 471 834 437 832C 391 830 380 832 380 845C 380 857 393 860 441 860C 485 860 501 857 498 848zM755 729C 755 616 768 620 440 620C 121 620 133 617 123 713C 113 807 87 801 442 798L442 798L755 795L755 729zM190 590C 223 585 225 582 228 542C 231 499 231 499 268 502C 303 505 305 507 310 545L310 545L315 585L442 588L569 591L572 548C 575 505 575 505 615 505C 655 505 655 505 656 545C 656 582 658 585 691 591C 710 595 733 601 743 605C 759 612 760 604 758 494L758 494L755 375L446 372C 211 370 135 373 129 382C 121 395 119 590 127 603C 129 607 137 607 143 603C 149 599 170 594 190 590zM280 560C 280 540 275 530 265 530C 250 530 244 570 257 583C 271 598 280 589 280 560zM628 557C 630 538 627 530 616 530C 605 530 600 540 600 561C 600 599 624 596 628 557z" stroke="none" fill="#000000" fill-rule="nonzero" />
        <path d="M387 724C 383 720 380 701 380 683L380 683L380 649L438 652L495 655L495 690C 495 725 495 725 445 728C 417 730 391 728 387 724zM468 688C 465 681 453 675 440 675C 427 675 415 681 413 688C 410 696 419 700 440 700C 461 700 470 696 468 688z" stroke="none" fill="#000000" fill-rule="nonzero" />
	</g>
</g>
</svg>